<svg width="10" height="18" viewBox="0 0 10 18" fill="none" xmlns="http://www.w3.org/2000/svg">
<g id="&#240;&#159;&#166;&#134; icon &#34;chevron right&#34;">
<path id="Vector" d="M0.364896 17.1219C0.131253 16.8976 0 16.5934 0 16.2762C0 15.959 0.131253 15.6548 0.364896 15.4305L6.96148 9.09895L0.364896 2.76745C0.137875 2.54185 0.0122562 2.23968 0.0150958 1.92604C0.0179353 1.6124 0.149006 1.31238 0.380077 1.09059C0.611148 0.868809 0.923733 0.743005 1.2505 0.74028C1.57728 0.737554 1.89209 0.858125 2.12714 1.07602L9.60485 8.25324C9.8385 8.47756 9.96975 8.78176 9.96975 9.09895C9.96975 9.41614 9.8385 9.72035 9.60485 9.94467L2.12714 17.1219C1.89343 17.3461 1.57649 17.4721 1.24602 17.4721C0.915549 17.4721 0.598609 17.3461 0.364896 17.1219Z" fill="white"/>
</g>
</svg>
